<?xml version="1.0" standalone="no"?>
<!DOCTYPE svg PUBLIC "-//W3C//DTD SVG 20010904//EN"
 "http://www.w3.org/TR/2001/REC-SVG-20010904/DTD/svg10.dtd">
<svg version="1.0" xmlns="http://www.w3.org/2000/svg"
 width="700.000000pt" height="700.000000pt" viewBox="0 0 700.000000 700.000000"
 preserveAspectRatio="xMidYMid meet">
<metadata>
Created by potrace 1.14, written by Peter Selinger 2001-2017
</metadata>
<g transform="translate(0.000000,700.000000) scale(0.100000,-0.100000)"
fill="#000000" stroke="none">
<path d="M4640 6981 c-85 -27 -134 -56 -193 -114 -92 -90 -138 -204 -133 -334
4 -90 7 -105 36 -169 l21 -48 -48 -49 c-176 -179 -684 -682 -693 -685 -6 -2
-21 3 -34 11 -66 44 -231 55 -332 23 -59 -18 -159 -81 -192 -120 -14 -17 -29
-25 -39 -22 -8 3 -27 9 -41 12 -15 4 -61 17 -102 29 -41 13 -145 42 -230 66
-85 23 -157 43 -158 45 -2 1 -6 24 -9 51 -11 110 -63 216 -141 291 -44 42
-142 99 -179 105 -10 1 -23 6 -29 10 -6 3 -58 5 -115 4 -95 -3 -110 -6 -174
-37 -82 -39 -164 -113 -205 -185 -60 -104 -76 -242 -42 -353 l19 -59 -30 -24
c-17 -13 -176 -140 -354 -282 -229 -183 -327 -256 -336 -249 -7 5 -38 19 -70
31 -292 107 -612 -115 -608 -423 1 -90 9 -124 49 -206 50 -103 183 -211 292
-235 59 -14 172 -13 227 2 238 62 389 328 319 562 -8 27 -20 59 -26 72 -13 23
-12 25 71 91 19 14 161 128 317 252 156 124 288 226 294 226 5 0 22 -8 36 -19
118 -82 324 -84 462 -4 44 26 122 98 150 140 l15 22 225 -64 c124 -36 241 -70
260 -75 l35 -9 0 -78 0 -78 -95 -59 c-204 -128 -351 -245 -517 -412 -98 -99
-237 -262 -283 -333 -16 -24 -17 -24 -195 -23 -127 0 -189 -4 -212 -13 -63
-26 -62 -16 -66 -631 -2 -308 -6 -569 -10 -580 -25 -93 -25 -570 0 -667 3 -12
8 -153 10 -313 l4 -291 -228 1 -228 1 0 630 c-1 487 -4 637 -13 661 -8 18 -29
39 -50 50 -35 19 -59 20 -397 19 -334 -1 -363 -3 -392 -20 -18 -10 -38 -32
-44 -48 -9 -22 -12 -191 -12 -662 l0 -633 -74 0 c-85 0 -115 -15 -140 -66 -22
-46 -11 -98 28 -130 17 -14 36 -27 42 -27 7 -1 399 -2 872 -3 l860 -1 29 -55
c211 -403 484 -723 841 -984 277 -203 624 -363 960 -441 46 -11 171 -36 202
-40 21 -3 47 -8 59 -10 120 -26 599 -26 744 0 14 2 57 9 95 15 158 25 400 95
575 167 592 245 1094 710 1387 1288 122 239 218 533 258 790 36 226 41 688 10
805 -2 8 -6 33 -9 55 -7 58 -45 241 -63 300 -81 268 -147 427 -265 633 -313
548 -829 983 -1424 1200 -96 35 -298 94 -367 107 -12 3 -33 7 -47 10 -14 2
-38 7 -55 9 -16 2 -48 7 -70 11 -251 38 -553 38 -787 1 -46 -8 -84 -12 -86
-11 -10 9 48 71 372 394 l355 354 53 -21 c83 -33 119 -40 195 -37 147 5 273
73 355 192 43 62 54 85 72 157 55 219 -73 450 -294 532 -66 24 -202 27 -270 5z
m222 -232 c130 -67 166 -218 79 -341 -68 -97 -221 -115 -318 -38 -69 54 -99
154 -74 247 14 52 86 128 133 142 59 17 136 13 180 -10z m-2725 -906 c121 -57
166 -208 96 -321 -119 -193 -415 -110 -415 117 0 165 171 275 319 204z m1349
-448 c87 -36 86 -39 -38 -79 -62 -21 -122 -41 -133 -46 -78 -34 -126 -52 -131
-47 -10 10 13 64 43 104 54 71 176 103 259 68z m-2736 -675 c88 -24 153 -116
154 -215 0 -138 -106 -235 -246 -222 -75 7 -130 42 -172 110 -57 93 -31 225
57 290 59 45 133 58 207 37z m1114 -740 c-20 -39 -39 -72 -43 -74 -4 -3 -7 29
-7 70 l-1 74 43 0 43 0 -35 -70z m-958 -1631 l1 -567 -226 2 -226 1 -1 560 c0
308 0 563 2 566 2 3 103 5 226 5 l223 -1 1 -566z"/>
</g>
</svg>
